<svg viewBox="0 0 240 360" xmlns="http://www.w3.org/2000/svg">
  <defs>
    <radialGradient id="auraStrong" cx="50%" cy="40%" r="62%">
      <stop offset="0%" stop-color="#FFFFFF" stop-opacity="0.34"/>
      <stop offset="60%" stop-color="#FFFFFF" stop-opacity="0.06"/>
      <stop offset="100%" stop-color="#FFFFFF" stop-opacity="0"/>
    </radialGradient>
  </defs>
  <circle cx="120" cy="140" r="160" fill="url(#auraStrong)"/>
  <!-- aura rays -->
  <g stroke="#FFFFFF" stroke-opacity="0.18" stroke-width="1.5">
    <line x1="120" y1="10" x2="120" y2="-10"/>
    <line x1="40" y1="60" x2="22" y2="46"/>
    <line x1="200" y1="60" x2="218" y2="46"/>
    <line x1="20" y1="150" x2="0" y2="150"/>
    <line x1="220" y1="150" x2="240" y2="150"/>
  </g>
  <g fill="none" stroke="#F4F4F7" stroke-width="2.8" stroke-linecap="round">
    <circle cx="120" cy="50" r="24"/>
    <line x1="120" y1="74" x2="120" y2="88"/>
    <path d="M74 100 Q120 84 166 100"/>
    <path d="M92 102 Q120 148 104 194"/>
    <path d="M148 102 Q120 148 136 194"/>
    <path d="M75 101 C60 126, 68 146, 58 166 C56 190, 66 208, 84 212"/>
    <path d="M165 101 C180 126, 172 146, 182 166 C184 190, 174 208, 156 212"/>
    <path d="M96 194 Q120 204 144 194"/>
    <path d="M108 196 C102 246, 99 298, 97 334"/>
    <path d="M132 196 C138 246, 141 298, 143 334"/>
    <path d="M108 116 L108 158" stroke-opacity="0.65"/>
    <path d="M132 116 L132 158" stroke-opacity="0.65"/>
    <path d="M110 126 L130 126" stroke-opacity="0.5"/>
    <path d="M110 140 L130 140" stroke-opacity="0.5"/>
    <path d="M111 154 L129 154" stroke-opacity="0.5"/>
    <path d="M96 108 Q120 118 144 108" stroke-opacity="0.55"/>
    <!-- shoulder deltoid caps -->
    <path d="M76 100 Q84 112 78 124" stroke-opacity="0.5"/>
    <path d="M164 100 Q156 112 162 124" stroke-opacity="0.5"/>
  </g>
</svg>
